<?xml version="1.0" encoding="utf-8" ?>
<svg xmlns="http://www.w3.org/2000/svg" xmlns:xlink="http://www.w3.org/1999/xlink" width="335" height="340">
	<path fill="#2A2C36" d="M182.957 43.3557C186.997 42.8403 191.567 43.1571 195.628 43.4187C214.354 44.6245 233.058 49.5272 249.392 58.8913C273.515 72.7209 290.755 95.2913 294.208 123.246C295.027 129.874 294.913 136.68 294.933 143.351L294.91 168.766C294.879 176.625 294.141 187.377 295.332 194.918C295.768 197.676 296.654 200.431 297.384 203.123C299.424 210.639 300.445 218.214 296.314 225.302C293.58 229.993 288.909 233.812 283.601 235.141C274.461 237.428 266.723 232.673 258.755 229.122C255.333 227.597 251.583 226.313 248.393 224.378C246.4 234.422 236.544 246.319 229.497 253.385C214.257 268.666 192.362 279.557 170.939 282.245C164.048 283.109 156.86 282.864 149.924 282.874C135.445 283.924 120.572 281.177 106.174 283.898C99.3922 285.18 92.7245 287.502 86.3856 290.208C76.8335 294.287 67.4629 300.918 56.6059 299.613C51.01 298.94 46.0915 295.921 42.6843 291.46C39.9276 287.851 38.5601 283.86 38.3842 279.341C38.0558 270.907 41.7328 262.245 42.1525 253.374C42.4054 248.027 42.2416 242.627 42.2331 237.272L42.1844 209.248C42.1737 202.4 41.8579 195.258 42.7905 188.464C45.2562 170.5 54.1234 154.102 66.943 141.39C71.9084 136.466 77.3805 132.155 82.9506 127.947C83.252 124.448 83.5161 120.965 84.2178 117.519C87.2911 102.424 95.6946 88.3768 105.716 76.8735C119.14 61.4648 140.069 51.0382 159.733 46.5078C167.35 44.753 175.17 43.8965 182.957 43.3557Z"/>
	<defs>
		<linearGradient id="gradient_0" gradientUnits="userSpaceOnUse" x1="110.93211" y1="98.123085" x2="295.81351" y2="175.9196">
			<stop offset="0" stop-color="#6EEEB9"/>
			<stop offset="1" stop-color="#71E8F2"/>
		</linearGradient>
	</defs>
	<path fill="url(#gradient_0)" d="M185.096 61.8653C206.777 61.5965 229.242 66.4525 247.176 79.1002C261.637 89.2977 273.064 105.519 275.536 123.266C276.611 130.988 276.209 138.887 276.205 146.662L276.172 174.241C276.154 180.593 275.987 186.994 276.366 193.338C276.786 200.379 279.52 206.85 280.698 213.731C280.282 214.623 279.87 215.587 279.145 216.279C277.339 218.005 273.573 215.793 271.715 214.899C259.162 208.862 246.043 202.539 232.144 200.453C226.144 199.552 220.131 199.444 214.078 199.391C199.296 199.551 183.902 200.308 169.252 198.223Q167.601 197.977 165.96 197.671Q164.318 197.365 162.689 197Q161.06 196.635 159.445 196.212Q157.83 195.788 156.232 195.307Q154.633 194.825 153.053 194.287Q151.473 193.748 149.913 193.152Q148.354 192.557 146.816 191.905Q145.279 191.254 143.767 190.547Q142.254 189.841 140.768 189.08Q139.282 188.319 137.824 187.505Q136.366 186.691 134.939 185.826Q133.512 184.96 132.117 184.043Q130.721 183.126 129.36 182.159Q127.999 181.192 126.674 180.177Q125.348 179.162 124.06 178.1Q122.773 177.037 121.524 175.929C109.73 165.289 101.825 150.606 101.023 134.624C100.201 118.244 107.224 102.882 118.093 90.9299C135.451 71.842 159.768 63.0956 185.096 61.8653Z"/>
	<path fill="#2A2C36" d="M142.235 104.355Q142.877 104.321 143.519 104.319Q144.162 104.317 144.804 104.347Q145.446 104.376 146.085 104.437Q146.725 104.498 147.361 104.59Q147.997 104.682 148.628 104.805Q149.258 104.928 149.882 105.082Q150.506 105.236 151.122 105.42Q151.737 105.604 152.343 105.818Q152.949 106.032 153.544 106.276Q154.138 106.519 154.72 106.792Q155.302 107.064 155.87 107.365Q156.438 107.665 156.991 107.993Q157.543 108.321 158.079 108.676Q158.615 109.031 159.133 109.411Q159.65 109.792 160.149 110.197Q160.647 110.602 161.126 111.032Q161.604 111.461 162.06 111.913Q162.517 112.365 162.95 112.84Q163.384 113.314 163.794 113.808Q164.204 114.303 164.59 114.817Q164.975 115.331 165.335 115.864Q165.694 116.396 166.028 116.946Q166.361 117.495 166.667 118.06Q166.972 118.626 167.25 119.205Q167.528 119.784 167.777 120.377Q168.026 120.969 168.246 121.573Q168.466 122.177 168.656 122.79Q168.846 123.404 169.005 124.027Q169.165 124.649 169.294 125.279Q169.423 125.908 169.521 126.543Q169.619 127.178 169.686 127.817Q169.753 128.456 169.788 129.098Q169.823 129.74 169.827 130.382Q169.831 131.025 169.804 131.667Q169.776 132.309 169.717 132.948Q169.658 133.588 169.568 134.224Q169.478 134.861 169.357 135.492Q169.235 136.123 169.083 136.747Q168.931 137.371 168.749 137.987Q168.567 138.603 168.354 139.21Q168.142 139.816 167.9 140.412Q167.658 141.007 167.387 141.59Q167.117 142.172 166.818 142.741Q166.519 143.31 166.193 143.863Q165.866 144.417 165.513 144.954Q165.16 145.491 164.781 146.009Q164.402 146.528 163.998 147.028Q163.594 147.528 163.166 148.007Q162.738 148.486 162.287 148.944Q161.837 149.402 161.364 149.837Q160.891 150.272 160.398 150.684Q159.904 151.095 159.391 151.482Q158.878 151.869 158.346 152.23Q157.815 152.591 157.267 152.926Q156.718 153.261 156.154 153.568Q155.59 153.876 155.011 154.155Q154.433 154.435 153.841 154.686Q153.25 154.936 152.646 155.158Q152.043 155.38 151.43 155.571Q150.817 155.763 150.195 155.925Q149.573 156.086 148.944 156.217Q148.315 156.348 147.68 156.448Q147.045 156.547 146.406 156.616Q145.767 156.685 145.126 156.722Q144.482 156.759 143.837 156.765Q143.192 156.771 142.548 156.745Q141.903 156.719 141.261 156.661Q140.619 156.604 139.98 156.514Q139.341 156.425 138.708 156.305Q138.074 156.184 137.447 156.033Q136.82 155.882 136.202 155.7Q135.583 155.517 134.974 155.305Q134.365 155.093 133.767 154.851Q133.169 154.609 132.584 154.338Q131.999 154.067 131.427 153.767Q130.856 153.468 130.3 153.141Q129.745 152.814 129.206 152.459Q128.667 152.105 128.146 151.725Q127.625 151.345 127.123 150.94Q126.621 150.534 126.14 150.105Q125.659 149.675 125.2 149.223Q124.74 148.77 124.304 148.295Q123.867 147.821 123.454 147.325Q123.042 146.829 122.654 146.314Q122.266 145.799 121.904 145.265Q121.542 144.731 121.206 144.181Q120.871 143.63 120.563 143.063Q120.255 142.496 119.975 141.915Q119.696 141.334 119.445 140.74Q119.194 140.146 118.973 139.54Q118.752 138.934 118.56 138.318Q118.369 137.702 118.208 137.078Q118.048 136.453 117.918 135.821Q117.788 135.19 117.689 134.552Q117.591 133.915 117.524 133.273Q117.457 132.632 117.421 131.988Q117.385 131.344 117.382 130.699Q117.378 130.054 117.406 129.41Q117.433 128.766 117.493 128.123Q117.552 127.481 117.643 126.843Q117.734 126.204 117.857 125.571Q117.979 124.938 118.132 124.311Q118.286 123.685 118.469 123.067Q118.653 122.448 118.867 121.84Q119.081 121.232 119.325 120.635Q119.569 120.037 119.841 119.453Q120.114 118.869 120.415 118.298Q120.716 117.728 121.045 117.173Q121.374 116.618 121.73 116.08Q122.085 115.542 122.467 115.022Q122.849 114.503 123.256 114.002Q123.662 113.502 124.093 113.022Q124.524 112.542 124.978 112.084Q125.432 111.626 125.908 111.191Q126.384 110.755 126.881 110.344Q127.378 109.933 127.894 109.546Q128.41 109.16 128.945 108.799Q129.48 108.439 130.032 108.105Q130.583 107.771 131.151 107.465Q131.719 107.159 132.301 106.881Q132.882 106.603 133.477 106.354Q134.072 106.105 134.679 105.885Q135.285 105.666 135.902 105.476Q136.518 105.287 137.143 105.128Q137.768 104.969 138.4 104.841Q139.032 104.713 139.67 104.616Q140.308 104.519 140.949 104.454Q141.591 104.389 142.235 104.355Z"/>
	<path fill="#FEFEFE" d="M143.177 122.888Q143.364 122.877 143.551 122.875Q143.738 122.873 143.925 122.88Q144.112 122.888 144.299 122.904Q144.486 122.92 144.671 122.945Q144.857 122.971 145.041 123.005Q145.225 123.039 145.407 123.082Q145.589 123.125 145.769 123.177Q145.949 123.229 146.126 123.29Q146.303 123.35 146.477 123.419Q146.651 123.488 146.822 123.566Q146.992 123.643 147.159 123.729Q147.325 123.814 147.487 123.908Q147.649 124.001 147.807 124.103Q147.964 124.204 148.117 124.313Q148.269 124.422 148.416 124.538Q148.563 124.654 148.704 124.777Q148.845 124.9 148.98 125.03Q149.115 125.16 149.243 125.296Q149.372 125.432 149.494 125.574Q149.615 125.716 149.73 125.864Q149.845 126.012 149.952 126.166Q150.06 126.319 150.16 126.477Q150.259 126.636 150.351 126.799Q150.444 126.962 150.528 127.129Q150.612 127.296 150.687 127.467Q150.763 127.639 150.831 127.813Q150.898 127.988 150.957 128.166Q151.016 128.343 151.066 128.524Q151.116 128.704 151.158 128.887Q151.199 129.069 151.232 129.254Q151.264 129.438 151.288 129.624Q151.311 129.809 151.326 129.996Q151.341 130.183 151.346 130.37Q151.351 130.557 151.348 130.744Q151.344 130.931 151.332 131.118Q151.319 131.305 151.297 131.491Q151.275 131.677 151.245 131.861Q151.214 132.046 151.174 132.229Q151.135 132.412 151.086 132.593Q151.038 132.774 150.981 132.952Q150.924 133.13 150.858 133.306Q150.792 133.481 150.718 133.653Q150.644 133.825 150.561 133.993Q150.479 134.161 150.389 134.325Q150.298 134.489 150.2 134.648Q150.102 134.807 149.996 134.962Q149.89 135.116 149.776 135.265Q149.663 135.414 149.543 135.558Q149.423 135.701 149.295 135.839Q149.168 135.976 149.035 136.107Q148.901 136.238 148.761 136.363Q148.621 136.487 148.475 136.605Q148.33 136.722 148.178 136.832Q148.027 136.943 147.871 137.046Q147.714 137.148 147.553 137.244Q147.392 137.339 147.226 137.426Q147.061 137.513 146.891 137.592Q146.721 137.671 146.548 137.742Q146.375 137.813 146.198 137.875Q146.021 137.938 145.842 137.991Q145.663 138.045 145.481 138.09Q145.299 138.135 145.116 138.171Q144.932 138.207 144.747 138.234Q144.561 138.261 144.375 138.279Q144.12 138.304 143.865 138.312Q143.609 138.319 143.353 138.31Q143.098 138.301 142.843 138.275Q142.589 138.249 142.337 138.206Q142.084 138.163 141.836 138.104Q141.587 138.044 141.342 137.969Q141.098 137.893 140.859 137.801Q140.621 137.709 140.388 137.602Q140.156 137.494 139.932 137.372Q139.707 137.249 139.491 137.112Q139.275 136.975 139.069 136.824Q138.862 136.673 138.666 136.508Q138.471 136.344 138.286 136.167Q138.101 135.99 137.929 135.801Q137.756 135.612 137.597 135.412Q137.437 135.212 137.291 135.002Q137.145 134.792 137.013 134.573Q136.881 134.354 136.764 134.126Q136.647 133.899 136.546 133.664Q136.444 133.429 136.358 133.188Q136.272 132.947 136.202 132.701Q136.132 132.455 136.079 132.205Q136.026 131.955 135.989 131.702Q135.952 131.449 135.932 131.194Q135.912 130.939 135.91 130.683Q135.907 130.427 135.921 130.172Q135.935 129.916 135.965 129.662Q135.996 129.409 136.044 129.157Q136.092 128.906 136.156 128.658Q136.22 128.411 136.3 128.168Q136.381 127.925 136.477 127.688Q136.573 127.451 136.685 127.221Q136.797 126.991 136.924 126.769Q137.05 126.547 137.192 126.333Q137.333 126.12 137.488 125.916Q137.643 125.713 137.811 125.52Q137.979 125.327 138.16 125.146Q138.34 124.965 138.532 124.796Q138.725 124.627 138.927 124.471Q139.13 124.316 139.343 124.174Q139.556 124.032 139.778 123.904Q139.999 123.776 140.229 123.664Q140.459 123.551 140.695 123.454Q140.932 123.357 141.174 123.275Q141.417 123.194 141.664 123.129Q141.912 123.064 142.163 123.015Q142.414 122.967 142.668 122.935Q142.922 122.903 143.177 122.888Z"/>
	<path fill="#2A2C36" d="M204.797 104.365Q205.434 104.328 206.073 104.322Q206.712 104.317 207.35 104.342Q207.988 104.368 208.624 104.424Q209.26 104.481 209.892 104.568Q210.525 104.656 211.152 104.775Q211.78 104.893 212.401 105.042Q213.022 105.191 213.634 105.37Q214.247 105.55 214.851 105.758Q215.454 105.967 216.047 106.206Q216.639 106.444 217.219 106.711Q217.799 106.977 218.366 107.272Q218.932 107.567 219.484 107.889Q220.035 108.212 220.57 108.561Q221.105 108.909 221.622 109.284Q222.139 109.658 222.637 110.058Q223.136 110.457 223.614 110.88Q224.092 111.304 224.549 111.75Q225.006 112.196 225.44 112.664Q225.875 113.132 226.286 113.62Q226.697 114.109 227.084 114.617Q227.471 115.125 227.832 115.651Q228.193 116.178 228.529 116.721Q228.864 117.265 229.172 117.824Q229.481 118.383 229.761 118.957Q230.042 119.53 230.294 120.117Q230.547 120.703 230.77 121.302Q230.993 121.9 231.187 122.508Q231.381 123.117 231.545 123.734Q231.708 124.351 231.842 124.976Q231.975 125.6 232.078 126.23Q232.181 126.861 232.252 127.495Q232.324 128.13 232.365 128.767Q232.406 129.404 232.415 130.043Q232.425 130.681 232.403 131.319Q232.381 131.958 232.328 132.594Q232.275 133.23 232.191 133.863Q232.108 134.496 231.993 135.125Q231.878 135.753 231.733 136.375Q231.587 136.996 231.412 137.61Q231.236 138.224 231.031 138.829Q230.825 139.434 230.591 140.027Q230.356 140.621 230.092 141.203Q229.829 141.785 229.537 142.353Q229.246 142.921 228.927 143.474Q228.608 144.027 228.262 144.564Q227.917 145.101 227.545 145.621Q227.174 146.14 226.777 146.641Q226.381 147.141 225.96 147.622Q225.54 148.102 225.096 148.562Q224.653 149.021 224.188 149.459Q223.722 149.896 223.236 150.31Q222.75 150.724 222.244 151.114Q221.738 151.504 221.214 151.868Q220.69 152.233 220.148 152.571Q219.607 152.91 219.049 153.221Q218.492 153.533 217.92 153.817Q217.348 154.101 216.763 154.357Q216.178 154.612 215.581 154.839Q214.984 155.066 214.377 155.263Q213.769 155.461 213.153 155.628Q212.537 155.795 211.913 155.933Q211.289 156.07 210.66 156.176Q210.03 156.283 209.396 156.358Q208.762 156.434 208.125 156.478Q207.483 156.523 206.84 156.536Q206.197 156.549 205.554 156.53Q204.911 156.512 204.269 156.462Q203.628 156.411 202.99 156.33Q202.351 156.248 201.718 156.135Q201.085 156.022 200.458 155.878Q199.831 155.734 199.212 155.559Q198.592 155.384 197.983 155.179Q197.373 154.974 196.774 154.739Q196.175 154.504 195.588 154.24Q195.002 153.976 194.429 153.683Q193.856 153.39 193.298 153.07Q192.74 152.749 192.199 152.401Q191.657 152.054 191.134 151.68Q190.61 151.306 190.106 150.907Q189.601 150.508 189.117 150.084Q188.633 149.66 188.17 149.214Q187.707 148.767 187.267 148.297Q186.827 147.828 186.41 147.338Q185.993 146.848 185.601 146.338Q185.209 145.827 184.843 145.298Q184.477 144.77 184.137 144.223Q183.797 143.677 183.485 143.115Q183.172 142.552 182.888 141.975Q182.603 141.398 182.347 140.808Q182.092 140.217 181.865 139.615Q181.639 139.013 181.443 138.4Q181.246 137.788 181.08 137.166Q180.915 136.544 180.779 135.915Q180.644 135.286 180.54 134.651Q180.436 134.017 180.364 133.377Q180.291 132.738 180.25 132.096Q180.209 131.454 180.2 130.811Q180.19 130.167 180.213 129.524Q180.235 128.881 180.289 128.24Q180.343 127.599 180.429 126.961Q180.514 126.324 180.631 125.691Q180.748 125.058 180.896 124.432Q181.043 123.806 181.222 123.188Q181.4 122.57 181.609 121.961Q181.818 121.353 182.056 120.755Q182.295 120.157 182.562 119.572Q182.83 118.987 183.126 118.416Q183.422 117.845 183.746 117.289Q184.07 116.733 184.421 116.194Q184.771 115.654 185.148 115.133Q185.525 114.612 185.928 114.109Q186.33 113.607 186.756 113.125Q187.183 112.644 187.632 112.183Q188.082 111.723 188.554 111.286Q189.026 110.848 189.518 110.435Q190.011 110.021 190.524 109.632Q191.036 109.243 191.567 108.88Q192.098 108.517 192.647 108.18Q193.195 107.843 193.759 107.534Q194.323 107.225 194.902 106.944Q195.481 106.663 196.073 106.411Q196.665 106.159 197.268 105.936Q197.872 105.713 198.486 105.52Q199.099 105.328 199.722 105.165Q200.345 105.003 200.974 104.872Q201.604 104.74 202.24 104.64Q202.875 104.54 203.515 104.471Q204.155 104.402 204.797 104.365Z"/>
	<path fill="#FEFEFE" d="M205.231 122.852Q205.415 122.825 205.6 122.807Q205.785 122.788 205.971 122.779Q206.157 122.77 206.343 122.77Q206.529 122.77 206.715 122.779Q206.901 122.788 207.086 122.806Q207.271 122.824 207.455 122.851Q207.639 122.878 207.821 122.914Q208.004 122.95 208.185 122.995Q208.365 123.04 208.543 123.094Q208.721 123.147 208.897 123.21Q209.072 123.272 209.244 123.343Q209.416 123.413 209.585 123.492Q209.753 123.571 209.917 123.658Q210.082 123.745 210.242 123.84Q210.402 123.935 210.557 124.038Q210.712 124.141 210.862 124.251Q211.012 124.361 211.156 124.478Q211.3 124.596 211.439 124.72Q211.577 124.844 211.71 124.975Q211.842 125.106 211.968 125.243Q212.093 125.38 212.212 125.523Q212.331 125.666 212.443 125.815Q212.555 125.964 212.659 126.118Q212.763 126.271 212.86 126.43Q212.957 126.589 213.046 126.753Q213.135 126.916 213.216 127.084Q213.297 127.251 213.369 127.422Q213.442 127.594 213.506 127.768Q213.57 127.943 213.626 128.12Q213.681 128.298 213.728 128.478Q213.775 128.658 213.813 128.84Q213.851 129.022 213.88 129.206Q213.909 129.39 213.929 129.575Q213.949 129.76 213.96 129.945Q213.971 130.131 213.973 130.317Q213.975 130.503 213.968 130.689Q213.961 130.875 213.945 131.06Q213.929 131.245 213.904 131.43Q213.879 131.614 213.845 131.797Q213.811 131.98 213.768 132.161Q213.725 132.342 213.673 132.52Q213.621 132.699 213.561 132.875Q213.501 133.051 213.432 133.224Q213.363 133.396 213.286 133.566Q213.208 133.735 213.123 133.9Q213.038 134.065 212.944 134.226Q212.851 134.387 212.75 134.543Q212.649 134.7 212.54 134.851Q212.432 135.002 212.316 135.147Q212.2 135.293 212.078 135.433Q211.955 135.572 211.825 135.706Q211.696 135.84 211.56 135.967Q211.424 136.094 211.283 136.214Q211.141 136.335 210.993 136.448Q210.846 136.561 210.693 136.668Q210.54 136.774 210.382 136.872Q210.225 136.97 210.062 137.061Q209.9 137.152 209.733 137.234Q209.566 137.317 209.396 137.391Q209.225 137.466 209.051 137.532Q208.878 137.598 208.701 137.655Q208.524 137.713 208.344 137.761Q208.165 137.81 207.983 137.85Q207.801 137.89 207.618 137.921Q207.37 137.963 207.12 137.989Q206.87 138.014 206.619 138.023Q206.367 138.032 206.116 138.025Q205.865 138.017 205.614 137.993Q205.364 137.969 205.116 137.928Q204.868 137.888 204.623 137.831Q204.378 137.774 204.137 137.702Q203.897 137.629 203.661 137.54Q203.426 137.452 203.197 137.348Q202.968 137.244 202.746 137.126Q202.524 137.007 202.311 136.874Q202.098 136.741 201.893 136.595Q201.689 136.448 201.495 136.288Q201.301 136.128 201.118 135.956Q200.935 135.784 200.763 135.6Q200.592 135.416 200.433 135.221Q200.274 135.026 200.128 134.821Q199.983 134.616 199.851 134.402Q199.719 134.188 199.601 133.966Q199.484 133.744 199.381 133.514Q199.278 133.285 199.191 133.049Q199.103 132.813 199.032 132.572Q198.96 132.331 198.905 132.086Q198.849 131.841 198.81 131.593Q198.77 131.344 198.747 131.094Q198.724 130.843 198.718 130.592Q198.712 130.341 198.722 130.09Q198.732 129.838 198.759 129.588Q198.786 129.338 198.829 129.091Q198.872 128.843 198.931 128.599Q198.99 128.354 199.066 128.114Q199.141 127.874 199.232 127.64Q199.323 127.406 199.429 127.178Q199.535 126.95 199.656 126.729Q199.777 126.509 199.912 126.297Q200.048 126.085 200.196 125.882Q200.345 125.68 200.507 125.487Q200.669 125.295 200.843 125.114Q201.017 124.932 201.203 124.763Q201.389 124.593 201.585 124.437Q201.782 124.28 201.988 124.136Q202.195 123.993 202.41 123.863Q202.626 123.733 202.849 123.618Q203.073 123.503 203.303 123.403Q203.534 123.302 203.771 123.218Q204.007 123.133 204.249 123.064Q204.491 122.995 204.736 122.942Q204.982 122.889 205.231 122.852Z"/>
	<path fill="#FEFEFE" d="M84.5308 149.933C85.647 150.445 86.3811 153.871 86.7409 154.999C88.852 161.623 92.0214 167.822 95.8761 173.6C116.023 203.796 149.439 217.787 184.951 217.964Q195.301 218.008 205.652 217.941C214.208 217.852 222.847 217.421 231.294 219.102Q230.479 220.922 229.62 222.721C219.992 242.597 202.775 253.088 182.557 260.073C164.025 265.525 144.254 264.022 125.131 264.033C117.925 264.037 110.69 264.044 103.552 265.15C94.2299 266.595 85.5213 269.78 76.9433 273.617C70.2867 276.595 64.3475 280.341 56.9739 281.245C56.8502 273.448 59.9857 266.27 60.3148 258.543C60.5467 253.098 60.3084 247.561 60.2971 242.105C60.266 227.127 59.9763 212.091 60.5277 197.121C61.2553 177.366 70.4006 163.052 84.5308 149.933Z"/>
</svg>
